<?xml version="1.0" encoding="UTF-8"?>
<svg xmlns="http://www.w3.org/2000/svg" xmlns:xlink="http://www.w3.org/1999/xlink" width="268pt" height="46pt" viewBox="0 0 268 46" version="1.1">
<g id="surface1">
<path style=" stroke:none;fill-rule:nonzero;fill:rgb(31.764706%,32.156863%,32.156863%);fill-opacity:1;" d="M 20.710938 30.917969 L 20.710938 38.25 L 18.011719 38.25 L 18.011719 30.890625 C 17.898438 28.492188 15.949219 26.570312 13.523438 26.570312 C 11.101562 26.570312 9.125 28.492188 9.039062 30.890625 L 9.039062 38.25 L 6.335938 38.25 L 6.335938 23.949219 L 9.039062 23.949219 L 9.039062 25.453125 C 10.238281 24.476562 11.824219 23.863281 13.523438 23.863281 C 15.921875 23.863281 18.066406 25.0625 19.375 26.875 C 20.683594 25.0625 22.832031 23.890625 25.199219 23.890625 C 29.152344 23.890625 32.386719 27.125 32.386719 31.085938 L 32.386719 38.277344 L 29.683594 38.277344 L 29.683594 31.085938 C 29.683594 28.605469 27.675781 26.597656 25.199219 26.597656 C 22.773438 26.597656 20.796875 28.519531 20.710938 30.917969 Z M 20.710938 30.917969 "/>
<path style=" stroke:none;fill-rule:nonzero;fill:rgb(31.764706%,32.156863%,32.156863%);fill-opacity:1;" d="M 50.523438 38.195312 C 48.933594 37.941406 47.734375 36.6875 46.871094 35.433594 C 45.5625 37.191406 43.472656 38.25 41.160156 38.25 C 37.207031 38.25 33.972656 35.015625 33.972656 31.027344 C 33.972656 27.070312 37.207031 23.863281 41.160156 23.863281 C 45.144531 23.863281 48.320312 27.070312 48.320312 31.027344 L 48.320312 31.640625 C 48.320312 33.257812 49.210938 34.820312 50.523438 35.488281 Z M 41.160156 26.597656 C 38.652344 26.597656 36.675781 28.546875 36.675781 31.027344 C 36.675781 33.539062 38.652344 35.546875 41.160156 35.546875 C 43.667969 35.546875 45.617188 33.539062 45.617188 31.027344 C 45.617188 28.546875 43.640625 26.597656 41.160156 26.597656 Z M 41.160156 26.597656 "/>
<path style=" stroke:none;fill-rule:nonzero;fill:rgb(31.764706%,32.156863%,32.156863%);fill-opacity:1;" d="M 92.78125 27.460938 C 92.78125 33.425781 87.964844 38.25 82 38.25 C 76.039062 38.25 71.21875 33.425781 71.21875 27.460938 C 71.21875 21.496094 76.039062 16.671875 82 16.671875 C 87.9375 16.671875 92.78125 21.523438 92.78125 27.460938 Z M 88.714844 27.460938 C 88.714844 23.753906 85.707031 20.742188 82 20.742188 C 78.296875 20.742188 75.289062 23.753906 75.289062 27.460938 C 75.289062 31.167969 78.296875 34.179688 82 34.179688 C 85.707031 34.207031 88.714844 31.167969 88.714844 27.460938 Z M 88.714844 27.460938 "/>
<path style=" stroke:none;fill-rule:nonzero;fill:rgb(31.764706%,32.156863%,32.156863%);fill-opacity:1;" d="M 98.71875 13.578125 C 97.210938 13.578125 95.960938 12.324219 95.960938 10.816406 C 95.960938 9.3125 97.210938 8.058594 98.71875 8.058594 C 100.222656 8.058594 101.476562 9.3125 101.476562 10.816406 C 101.476562 12.324219 100.25 13.578125 98.71875 13.578125 Z M 96.710938 16.949219 L 100.75 16.949219 L 100.75 38.277344 L 96.710938 38.277344 Z M 96.710938 16.949219 "/>
<path style=" stroke:none;fill-rule:nonzero;fill:rgb(31.764706%,32.156863%,32.156863%);fill-opacity:1;" d="M 115.570312 34.207031 L 115.570312 38.222656 C 109.582031 38.222656 104.789062 33.425781 104.789062 27.433594 L 104.789062 12.851562 L 108.828125 12.851562 L 108.828125 16.949219 L 115.542969 16.949219 L 115.542969 21.046875 L 108.828125 21.046875 L 108.828125 27.433594 C 108.859375 31.140625 111.867188 34.152344 115.570312 34.207031 Z M 115.570312 34.207031 "/>
<path style=" stroke:none;fill-rule:nonzero;fill:rgb(31.764706%,32.156863%,32.156863%);fill-opacity:1;" d="M 135.878906 27.851562 L 135.878906 16.894531 L 139.921875 16.894531 L 139.921875 38.332031 L 135.878906 38.332031 L 135.878906 35.992188 C 134.015625 37.46875 131.703125 38.332031 129.167969 38.332031 C 123.203125 38.332031 119.5 33.511719 119.5 27.542969 L 119.5 16.894531 L 123.539062 16.894531 L 123.539062 27.542969 C 123.539062 31.253906 125.710938 34.261719 129.417969 34.261719 C 133.039062 34.289062 135.714844 31.449219 135.878906 27.851562 Z M 135.878906 27.851562 "/>
<path style=" stroke:none;fill-rule:nonzero;fill:rgb(31.764706%,32.156863%,32.156863%);fill-opacity:1;" d="M 143.542969 38.25 L 143.542969 16.894531 L 147.582031 16.894531 L 147.582031 19.097656 C 149.390625 17.621094 151.761719 16.726562 154.296875 16.726562 L 154.296875 20.796875 C 150.589844 20.796875 147.582031 23.78125 147.582031 27.515625 L 147.582031 38.25 Z M 143.542969 38.25 "/>
<path style=" stroke:none;fill-rule:nonzero;fill:rgb(31.764706%,32.156863%,32.156863%);fill-opacity:1;" d="M 176.527344 27.515625 C 176.527344 33.371094 171.734375 38.222656 165.71875 38.222656 C 159.8125 38.222656 155.019531 33.398438 155.019531 27.515625 C 155.019531 21.464844 159.8125 16.699219 165.71875 16.699219 C 169.503906 16.699219 172.738281 18.566406 174.632812 21.328125 L 162.597656 33.398438 C 163.542969 33.871094 164.574219 34.179688 165.6875 34.179688 C 169.476562 34.179688 172.457031 31.195312 172.457031 27.542969 L 176.527344 27.542969 Z M 159.753906 30.5 L 168.808594 21.4375 C 167.945312 21.019531 166.859375 20.714844 165.71875 20.714844 C 162.011719 20.714844 159.085938 23.695312 159.085938 27.542969 C 159.058594 28.546875 159.308594 29.578125 159.753906 30.5 Z M 159.753906 30.5 "/>
<path style=" stroke:none;fill-rule:nonzero;fill:rgb(8.627451%,80.392157%,83.921569%);fill-opacity:1;" d="M 195.859375 35.015625 C 193.910156 36.996094 191.234375 38.25 188.226562 38.25 C 182.320312 38.25 177.445312 33.371094 177.445312 27.433594 C 177.445312 21.578125 182.320312 16.699219 188.226562 16.699219 C 191.207031 16.699219 193.882812 17.898438 195.804688 19.792969 L 192.960938 22.691406 C 191.765625 21.496094 190.066406 20.742188 188.226562 20.742188 C 184.464844 20.742188 181.511719 23.726562 181.511719 27.433594 C 181.511719 31.222656 184.492188 34.152344 188.226562 34.152344 C 190.175781 34.152344 191.792969 33.425781 193.019531 32.171875 Z M 195.859375 35.015625 "/>
<path style=" stroke:none;fill-rule:nonzero;fill:rgb(8.627451%,80.392157%,83.921569%);fill-opacity:1;" d="M 221.488281 38.167969 C 219.121094 37.777344 217.3125 35.9375 216 34.011719 C 214.023438 36.632812 210.902344 38.25 207.421875 38.25 C 201.460938 38.25 196.640625 33.425781 196.640625 27.433594 C 196.640625 21.464844 201.460938 16.699219 207.421875 16.699219 C 213.410156 16.699219 218.148438 21.496094 218.148438 27.433594 L 218.148438 28.351562 C 218.148438 30.777344 219.484375 33.09375 221.460938 34.125 L 221.460938 38.167969 Z M 207.421875 20.769531 C 203.660156 20.769531 200.707031 23.695312 200.707031 27.40625 C 200.707031 31.167969 203.6875 34.179688 207.421875 34.179688 C 211.15625 34.179688 214.109375 31.167969 214.109375 27.40625 C 214.109375 23.726562 211.183594 20.769531 207.421875 20.769531 Z M 207.421875 20.769531 "/>
<path style=" stroke:none;fill-rule:nonzero;fill:rgb(8.627451%,80.392157%,83.921569%);fill-opacity:1;" d="M 261.246094 38.25 L 257.203125 38.25 L 257.203125 27.433594 C 257.203125 23.667969 254.753906 20.714844 251.046875 20.714844 C 247.34375 20.714844 244.917969 23.640625 244.890625 27.347656 L 244.890625 38.222656 L 240.851562 38.222656 L 240.851562 5.9375 L 244.890625 5.9375 L 244.890625 19.070312 C 246.703125 17.589844 248.511719 16.699219 251.046875 16.699219 C 257.011719 16.699219 261.214844 21.496094 261.273438 27.433594 L 261.273438 38.25 Z M 261.246094 38.25 "/>
<path style=" stroke:none;fill-rule:nonzero;fill:rgb(31.764706%,32.156863%,32.156863%);fill-opacity:1;" d="M 65.957031 16.753906 L 70.550781 16.753906 L 61.078125 38.585938 L 59.660156 38.585938 L 49.9375 16.753906 L 54.589844 16.753906 L 60.382812 29.941406 Z M 65.957031 16.753906 "/>
<path style=" stroke:none;fill-rule:nonzero;fill:rgb(8.627451%,80.392157%,83.921569%);fill-opacity:1;" d="M 225.445312 34.125 L 225.472656 38.167969 C 225.472656 38.167969 231.796875 38.917969 235.445312 35.824219 C 239.402344 32.507812 237.535156 25.398438 230.933594 24.535156 C 229.125 24.308594 229.152344 25.34375 229.792969 25.789062 C 230.710938 26.429688 234.75 29.160156 232.578125 32.226562 C 232.1875 32.867188 229.765625 34.652344 225.445312 34.125 Z M 225.445312 34.125 "/>
<path style=" stroke:none;fill-rule:nonzero;fill:rgb(8.627451%,80.392157%,83.921569%);fill-opacity:1;" d="M 234.417969 20.796875 L 234.304688 16.726562 C 234.304688 16.726562 227.953125 16.085938 224.359375 19.207031 C 220.460938 22.609375 222.464844 29.691406 229.066406 30.414062 C 230.878906 30.609375 230.851562 29.578125 230.183594 29.132812 C 229.234375 28.519531 225.167969 25.816406 227.285156 22.722656 C 227.703125 22.136719 230.070312 20.296875 234.417969 20.796875 Z M 234.417969 20.796875 "/>
</g>
</svg>
